<?xml version="1.0" encoding="utf-8"?>
<!DOCTYPE svg PUBLIC "-//W3C//DTD SVG 1.1//EN" "http://www.w3.org/Graphics/SVG/1.1/DTD/svg11.dtd">
<svg version="1.1" id="Layer_1" xmlns="http://www.w3.org/2000/svg" xmlns:xlink="http://www.w3.org/1999/xlink" x="0px" y="0px"
	 width="170px" height="55px" viewBox="0 0 170 55" enable-background="new 0 0 170 55" xml:space="preserve">
<g>
	<path fill="#C3C1C0" d="M17.114,36.183c0,0-4.105,1.3-7.431,1.3c-2.027,0-3.17-1.402-3.17-4.002c0-2.441,1.196-3.74,3.897-3.949
		l6.703-0.518V36.183z M13.528,14.669c-3.948,0-10.444,1.039-10.444,1.039l0.208,4.261c0,0,6.131-0.622,9.977-0.622
		c2.442,0,3.845,1.298,3.845,3.947v1.871l-7.274,0.624c-5.508,0.467-8.313,2.495-8.313,7.795c0,5.144,2.599,8.159,7.276,8.159
		c4.52,0,9.04-1.923,9.04-1.923c1.087,0.969,2.202,1.533,4.211,1.758V23.244C22.053,17.112,19.09,14.669,13.528,14.669"/>
	<path fill="#C3C1C0" d="M31.498,20.854v16.006c0.467,0.052,3.014,0.416,5.04,0.416c5.145,0,6.755-2.547,6.755-9.406
		c0-6.496-2.026-8.73-5.508-8.73C34.979,19.139,31.498,20.854,31.498,20.854 M26.612,15.242h4.886V16.8c0,0,3.688-2.131,7.118-2.131
		c6.65,0,9.717,3.691,9.717,13.251c0,10.498-3.532,13.823-11.483,13.823c-2.286,0-4.886-0.468-5.352-0.571V52.5h-4.886V15.242z"/>
	<path fill="#C3C1C0" d="M68.63,26.414c0-5.404-1.716-7.379-5.873-7.379c-4.053,0-6.079,2.131-6.131,7.379H68.63z M72.528,36.756
		l0.102,3.896c0,0-5.923,1.092-10.34,1.092c-7.796-0.053-10.602-4.365-10.602-13.356c0-9.664,4.158-13.718,11.068-13.718
		c7.172,0,10.757,3.69,10.757,12.004l-0.311,3.586H56.678c0,4.678,1.663,6.963,6.286,6.963
		C66.967,37.223,72.528,36.756,72.528,36.756"/>
	<path fill="#C3C1C0" d="M77.644,15.242h4.886v3.065c0,0,0.434-3.065,8.47-3.065v4.417c-5.177-0.634-8.47,2.142-8.47,2.142v19.372
		h-4.886V15.242z"/>
	<path fill="#C3C1C0" d="M102.408,19.658v11.328c0,4.678,0.261,6.133,3.223,6.133c1.454,0,4.416-0.26,4.416-0.26l0.262,4.261
		c0,0-3.482,0.625-5.302,0.625c-5.664,0-7.482-2.131-7.482-9.614V19.658h-3.481v-4.417h3.481V7.446h4.884v7.796h7.639v4.417H102.408
		z"/>
	<path fill="#C3C1C0" d="M134.372,15.242v25.93c-2.894,0-3.565-1.506-3.565-1.506s-5.424,2.078-8.646,2.078
		c-7.379,0-8.885-3.638-8.885-12.992v-13.51h4.936V28.7c0,6.34,0.469,8.574,4.834,8.574c2.91,0,6.391-1.56,6.391-1.56V15.242
		H134.372z"/>
	<path fill="#C3C1C0" d="M156.641,19.918c0,0-5.975-0.832-9.197-0.832c-3.117,0-4.988,0.779-4.988,3.325
		c0,1.976,1.195,2.547,5.925,3.326c6.859,1.091,9.198,2.651,9.198,7.743c0,6.08-3.896,8.264-10.238,8.264
		c-3.48,0-9.406-1.092-9.406-1.092l0.209-4.209c0,0,6.131,0.831,8.781,0.831c3.951,0,5.717-0.831,5.717-3.638
		c0-2.182-1.092-2.702-5.717-3.43c-6.496-1.092-9.406-2.391-9.406-7.691c0-5.82,4.678-7.847,9.614-7.847
		c3.845,0,9.614,1.092,9.614,1.092L156.641,19.918z"/>
	<path fill="#FA8756" d="M163.557,2.5c-2.718,0-4.92,2.202-4.92,4.919c0,2.716,2.202,4.919,4.92,4.919
		c2.717,0,4.918-2.203,4.918-4.919C168.475,4.702,166.272,2.5,163.557,2.5 M163.557,4.907c1.385,0,2.512,1.127,2.512,2.513
		c0,1.385-1.127,2.512-2.512,2.512c-1.386,0-2.512-1.127-2.512-2.512C161.045,6.034,162.171,4.907,163.557,4.907"/>
</g>
</svg>
